<svg width="492" height="145" viewBox="0 0 492 145" fill="none" xmlns="http://www.w3.org/2000/svg">
<path d="M44.544 116.12V115.352C44.544 114.584 44.16 114.2 43.392 114.2H39.424C30.8906 114.2 26.624 116.76 26.624 121.88C26.624 125.72 28.7573 127.64 33.024 127.64C36.352 127.64 39.0826 126.616 41.216 124.568C43.4346 122.435 44.544 119.619 44.544 116.12ZM36.864 75.16C48.128 75.16 56.2773 77.208 61.312 81.304C66.3466 85.4 68.864 91.8853 68.864 100.76V135.704C68.864 137.667 68.1386 139.373 66.688 140.824C65.2373 142.275 63.5306 143 61.568 143H53.504C51.456 143 49.7066 142.317 48.256 140.952C46.8053 139.501 46.0373 137.752 45.952 135.704V134.68C45.952 134.595 45.9093 134.552 45.824 134.552C45.7386 134.552 45.6533 134.595 45.568 134.68C40.1066 141.08 33.3653 144.28 25.344 144.28C19.3706 144.28 14.464 142.403 10.624 138.648C6.78397 134.808 4.86397 129.859 4.86397 123.8C4.86397 108.44 16.384 100.76 39.424 100.76H43.392C44.16 100.76 44.544 100.376 44.544 99.608V99.48C44.544 94.36 41.5573 91.8 35.584 91.8C30.464 91.8 23.8506 92.568 15.744 94.104C13.952 94.4453 12.3306 94.0613 10.88 92.952C9.4293 91.7573 8.70397 90.2213 8.70397 88.344V86.296C8.70397 84.1627 9.34397 82.2427 10.624 80.536C11.9893 78.8293 13.696 77.8053 15.744 77.464C24.192 75.928 31.232 75.16 36.864 75.16ZM105.178 76.44C107.141 76.44 108.847 77.1653 110.298 78.616C111.749 80.0667 112.474 81.7733 112.474 83.736V135.704C112.474 137.667 111.749 139.373 110.298 140.824C108.847 142.275 107.141 143 105.178 143H94.17C92.2073 143 90.5006 142.275 89.05 140.824C87.5993 139.373 86.874 137.667 86.874 135.704V83.736C86.874 81.7733 87.5993 80.0667 89.05 78.616C90.5006 77.1653 92.2073 76.44 94.17 76.44H105.178ZM105.178 47C107.141 47 108.847 47.7253 110.298 49.176C111.749 50.6267 112.474 52.3333 112.474 54.296V57.624C112.474 59.5867 111.749 61.2933 110.298 62.744C108.847 64.1947 107.141 64.92 105.178 64.92H94.17C92.2073 64.92 90.5006 64.1947 89.05 62.744C87.5993 61.2933 86.874 59.5867 86.874 57.624V54.296C86.874 52.3333 87.5993 50.6267 89.05 49.176C90.5006 47.7253 92.2073 47 94.17 47H105.178ZM177.653 76.696C179.616 76.44 181.322 77.0373 182.773 78.488C184.224 79.9387 184.949 81.688 184.949 83.736V87.064C184.949 89.0267 184.266 90.7333 182.901 92.184C181.536 93.5493 179.829 94.36 177.781 94.616C171.21 95.4693 165.962 97.944 162.037 102.04C158.112 106.051 156.149 110.957 156.149 116.76V135.704C156.149 137.667 155.424 139.373 153.973 140.824C152.522 142.275 150.816 143 148.853 143H138.485C136.522 143 134.816 142.275 133.365 140.824C131.914 139.373 131.189 137.667 131.189 135.704V83.736C131.189 81.7733 131.914 80.0667 133.365 78.616C134.816 77.1653 136.522 76.44 138.485 76.44H148.213C150.176 76.44 151.882 77.1653 153.333 78.616C154.784 80.0667 155.509 81.7733 155.509 83.736V89.112C155.509 89.1973 155.552 89.24 155.637 89.24C155.722 89.24 155.808 89.1973 155.893 89.112C161.269 82.0293 168.522 77.8907 177.653 76.696ZM278.289 116.76V102.68C278.289 100.205 277.18 97.9867 274.961 96.024C272.828 94.0613 270.31 93.08 267.409 93.08C260.156 93.08 256.529 98.6267 256.529 109.72C256.529 115.267 257.51 119.448 259.473 122.264C261.436 124.995 264.081 126.36 267.409 126.36C270.31 126.36 272.828 125.379 274.961 123.416C277.18 121.453 278.289 119.235 278.289 116.76ZM294.673 47C296.636 47 298.342 47.7253 299.793 49.176C301.244 50.6267 301.969 52.3333 301.969 54.296V135.704C301.969 137.667 301.244 139.373 299.793 140.824C298.342 142.275 296.636 143 294.673 143H286.609C284.561 143 282.812 142.317 281.361 140.952C279.91 139.501 279.142 137.752 279.057 135.704V134.68C279.057 134.595 279.014 134.552 278.929 134.552C278.844 134.552 278.758 134.595 278.673 134.68C273.468 141.08 266.726 144.28 258.449 144.28C251.025 144.28 244.881 141.251 240.017 135.192C235.238 129.133 232.849 120.643 232.849 109.72C232.849 98.5413 235.153 90.008 239.761 84.12C244.369 78.1467 250.598 75.16 258.449 75.16C265.276 75.16 271.548 77.6773 277.265 82.712C277.35 82.7973 277.436 82.84 277.521 82.84C277.606 82.84 277.649 82.7973 277.649 82.712V54.296C277.649 52.3333 278.374 50.6267 279.825 49.176C281.276 47.7253 282.982 47 284.945 47H294.673ZM342.625 84.76C347.916 78.36 354.444 75.16 362.209 75.16C369.974 75.16 375.521 77.3787 378.849 81.816C382.262 86.2533 383.969 93.848 383.969 104.6V135.704C383.969 137.667 383.244 139.373 381.793 140.824C380.342 142.275 378.636 143 376.673 143H367.585C365.622 143 363.916 142.275 362.465 140.824C361.014 139.373 360.289 137.667 360.289 135.704V104.6C360.289 100.675 359.734 97.9867 358.625 96.536C357.516 95.0853 355.51 94.36 352.609 94.36C350.22 94.36 348.001 95.2987 345.953 97.176C343.99 99.0533 343.009 101.101 343.009 103.32V135.704C343.009 137.667 342.284 139.373 340.833 140.824C339.382 142.275 337.676 143 335.713 143H325.985C324.022 143 322.316 142.275 320.865 140.824C319.414 139.373 318.689 137.667 318.689 135.704V83.736C318.689 81.7733 319.414 80.0667 320.865 78.616C322.316 77.1653 324.022 76.44 325.985 76.44H334.689C336.737 76.44 338.486 77.1653 339.937 78.616C341.388 79.9813 342.156 81.688 342.241 83.736V84.76C342.241 84.8453 342.284 84.888 342.369 84.888C342.54 84.888 342.625 84.8453 342.625 84.76ZM434.639 126.36C437.967 126.36 440.612 124.995 442.575 122.264C444.538 119.448 445.519 115.267 445.519 109.72C445.519 98.6267 441.892 93.08 434.639 93.08C431.738 93.08 429.178 94.0613 426.959 96.024C424.826 97.9867 423.759 100.205 423.759 102.68V116.76C423.759 119.235 424.826 121.453 426.959 123.416C429.178 125.379 431.738 126.36 434.639 126.36ZM443.599 75.16C451.45 75.16 457.679 78.1467 462.287 84.12C466.895 90.008 469.199 98.5413 469.199 109.72C469.199 120.643 466.767 129.133 461.903 135.192C457.124 141.251 451.023 144.28 443.599 144.28C435.407 144.28 428.666 141.08 423.375 134.68C423.29 134.595 423.204 134.552 423.119 134.552C423.034 134.552 422.991 134.595 422.991 134.68V135.704C422.906 137.752 422.138 139.501 420.687 140.952C419.236 142.317 417.487 143 415.439 143H407.375C405.412 143 403.706 142.275 402.255 140.824C400.804 139.373 400.079 137.667 400.079 135.704V54.296C400.079 52.3333 400.804 50.6267 402.255 49.176C403.706 47.7253 405.412 47 407.375 47H417.103C419.066 47 420.772 47.7253 422.223 49.176C423.674 50.6267 424.399 52.3333 424.399 54.296V82.712C424.399 82.7973 424.442 82.84 424.527 82.84C424.612 82.84 424.698 82.7973 424.783 82.712C430.5 77.6773 436.772 75.16 443.599 75.16Z" fill="#159A9C"/>
</svg>
