<svg width="528" height="190" viewBox="0 0 528 190" fill="none" xmlns="http://www.w3.org/2000/svg">
<path d="M58.2927 27C26.0987 27 0 53.0987 0 85.2927C0 99.6653 5.22533 112.8 13.8485 122.964L58.2927 175.307L102.735 122.963C111.358 112.8 116.584 99.6636 116.584 85.2911C116.585 53.0987 90.4868 27 58.2927 27ZM58.2927 107.259C45.0522 107.259 34.3198 96.5261 34.3198 83.2857C34.3198 70.0452 45.0522 59.3127 58.2927 59.3127C71.5332 59.3127 82.2657 70.0452 82.2657 83.2857C82.2657 96.5261 71.5332 107.259 58.2927 107.259Z" fill="#159A9C"/>
<path d="M180.808 112.536C170.397 112.536 165.192 115.736 165.192 122.136C165.192 124.44 165.875 126.275 167.24 127.64C168.605 128.92 170.44 129.56 172.744 129.56C176.84 129.56 180.168 128.28 182.728 125.72C185.288 123.075 186.568 119.576 186.568 115.224V113.688C186.568 112.92 186.184 112.536 185.416 112.536H180.808ZM166.472 144.28C160.584 144.28 155.72 142.403 151.88 138.648C148.125 134.808 146.248 129.859 146.248 123.8C146.248 108.269 157.768 100.504 180.808 100.504H185.416C186.184 100.504 186.568 100.163 186.568 99.48V98.84C186.568 95.5973 185.715 93.2507 184.008 91.8C182.387 90.3493 179.613 89.624 175.688 89.624C170.483 89.624 164.253 90.4347 157 92.056C155.208 92.3973 153.587 92.0133 152.136 90.904C150.771 89.7947 150.088 88.344 150.088 86.552V86.296C150.088 84.1627 150.728 82.2427 152.008 80.536C153.373 78.744 155.08 77.6773 157.128 77.336C164.637 75.8853 171.123 75.16 176.584 75.16C187.763 75.16 195.656 77.1653 200.264 81.176C204.957 85.1867 207.304 91.8427 207.304 101.144V135.704C207.304 137.667 206.579 139.373 205.128 140.824C203.677 142.275 201.971 143 200.008 143H195.272C193.224 143 191.475 142.317 190.024 140.952C188.573 139.501 187.805 137.752 187.72 135.704V134.296C187.72 134.211 187.677 134.168 187.592 134.168C187.421 134.168 187.336 134.211 187.336 134.296C181.96 140.952 175.005 144.28 166.472 144.28ZM221.909 143C219.946 143 218.24 142.275 216.789 140.824C215.338 139.373 214.613 137.667 214.613 135.704V83.736C214.613 81.7733 215.338 80.0667 216.789 78.616C218.24 77.1653 219.946 76.44 221.909 76.44H229.077C231.04 76.44 232.746 77.1653 234.197 78.616C235.648 80.0667 236.373 81.7733 236.373 83.736V135.704C236.373 137.667 235.648 139.373 234.197 140.824C232.746 142.275 231.04 143 229.077 143H221.909ZM221.909 63.64C219.946 63.64 218.24 62.9147 216.789 61.464C215.338 60.0133 214.613 58.3067 214.613 56.344V54.296C214.613 52.3333 215.338 50.6267 216.789 49.176C218.24 47.7253 219.946 47 221.909 47H229.077C231.04 47 232.746 47.7253 234.197 49.176C235.648 50.6267 236.373 52.3333 236.373 54.296V56.344C236.373 58.3067 235.648 60.0133 234.197 61.464C232.746 62.9147 231.04 63.64 229.077 63.64H221.909ZM251.421 143C249.458 143 247.752 142.275 246.301 140.824C244.936 139.373 244.253 137.667 244.253 135.704V83.736C244.253 81.7733 244.936 80.0667 246.301 78.616C247.752 77.1653 249.458 76.44 251.421 76.44H257.693C259.656 76.44 261.32 77.1653 262.685 78.616C264.136 80.0667 264.861 81.7733 264.861 83.736V89.112C264.861 89.1973 264.904 89.24 264.989 89.24C265.16 89.24 265.245 89.1973 265.245 89.112C270.536 82.0293 277.917 77.8907 287.389 76.696C289.352 76.44 291.016 77.0373 292.381 78.488C293.832 79.9387 294.557 81.688 294.557 83.736V84.76C294.557 86.7227 293.832 88.4293 292.381 89.88C291.016 91.3307 289.309 92.1413 287.261 92.312C280.349 93.08 274.973 95.4693 271.133 99.48C267.378 103.405 265.501 108.525 265.501 114.84V135.704C265.501 137.667 264.776 139.373 263.325 140.824C261.96 142.275 260.296 143 258.333 143H251.421ZM350.992 90.52C342.459 90.52 338.192 96.92 338.192 109.72C338.192 116.205 339.344 121.027 341.648 124.184C343.952 127.341 347.067 128.92 350.992 128.92C354.405 128.92 357.392 127.768 359.952 125.464C362.512 123.16 363.792 120.557 363.792 117.656V101.784C363.792 98.8827 362.512 96.28 359.952 93.976C357.392 91.672 354.405 90.52 350.992 90.52ZM343.952 144.28C336.357 144.28 330.128 141.251 325.264 135.192C320.4 129.048 317.968 120.557 317.968 109.72C317.968 98.6267 320.315 90.0933 325.008 84.12C329.701 78.1467 336.016 75.16 343.952 75.16C350.949 75.16 357.307 77.7627 363.024 82.968C363.109 83.0533 363.195 83.096 363.28 83.096C363.365 83.096 363.408 83.0533 363.408 82.968V54.296C363.408 52.3333 364.091 50.6267 365.456 49.176C366.907 47.7253 368.613 47 370.576 47H376.848C378.811 47 380.475 47.7253 381.84 49.176C383.291 50.6267 384.016 52.3333 384.016 54.296V135.704C384.016 137.667 383.291 139.373 381.84 140.824C380.475 142.275 378.811 143 376.848 143H371.984C369.936 143 368.187 142.317 366.736 140.952C365.371 139.501 364.645 137.752 364.56 135.704V134.68C364.56 134.595 364.517 134.552 364.432 134.552L364.176 134.808C358.8 141.123 352.059 144.28 343.952 144.28ZM396.566 143C394.603 143 392.897 142.275 391.446 140.824C390.081 139.373 389.398 137.667 389.398 135.704V83.736C389.398 81.7733 390.081 80.0667 391.446 78.616C392.897 77.1653 394.603 76.44 396.566 76.44H401.814C403.862 76.44 405.569 77.1653 406.934 78.616C408.385 79.9813 409.153 81.688 409.238 83.736L409.366 84.76C409.366 84.8453 409.409 84.888 409.494 84.888L409.75 84.632C415.297 78.3173 421.953 75.16 429.718 75.16C437.483 75.16 443.073 77.3787 446.486 81.816C449.899 86.168 451.606 93.6347 451.606 104.216V135.704C451.606 137.667 450.881 139.373 449.43 140.824C448.065 142.275 446.401 143 444.438 143H438.806C436.843 143 435.137 142.275 433.686 140.824C432.235 139.373 431.51 137.667 431.51 135.704V104.856C431.51 99.736 430.827 96.2373 429.462 94.36C428.097 92.3973 425.622 91.416 422.038 91.416C419.051 91.416 416.278 92.6533 413.718 95.128C411.243 97.5173 410.006 100.12 410.006 102.936V135.704C410.006 137.667 409.281 139.373 407.83 140.824C406.465 142.275 404.801 143 402.838 143H396.566ZM476.602 101.784V117.656C476.602 120.557 477.882 123.16 480.442 125.464C483.002 127.768 485.989 128.92 489.402 128.92C493.327 128.92 496.442 127.341 498.746 124.184C501.05 121.027 502.202 116.205 502.202 109.72C502.202 96.92 497.935 90.52 489.402 90.52C485.989 90.52 483.002 91.672 480.442 93.976C477.882 96.28 476.602 98.8827 476.602 101.784ZM463.546 143C461.583 143 459.877 142.275 458.426 140.824C457.061 139.373 456.378 137.667 456.378 135.704V54.296C456.378 52.3333 457.061 50.6267 458.426 49.176C459.877 47.7253 461.583 47 463.546 47H469.818C471.781 47 473.445 47.7253 474.81 49.176C476.261 50.6267 476.986 52.3333 476.986 54.296V82.968C476.986 83.0533 477.029 83.096 477.114 83.096C477.199 83.096 477.285 83.0533 477.37 82.968C483.087 77.7627 489.445 75.16 496.442 75.16C504.378 75.16 510.693 78.1467 515.386 84.12C520.079 90.0933 522.426 98.6267 522.426 109.72C522.426 120.557 519.994 129.048 515.13 135.192C510.266 141.251 504.037 144.28 496.442 144.28C488.335 144.28 481.594 141.123 476.218 134.808L475.962 134.552C475.877 134.552 475.834 134.595 475.834 134.68V135.704C475.749 137.752 474.981 139.501 473.53 140.952C472.165 142.317 470.458 143 468.41 143H463.546Z" fill="#159A9C"/>
</svg>
